<svg width="40" height="40" viewBox="0 0 40 40" fill="none" xmlns="http://www.w3.org/2000/svg">
<g clip-path="url(#clip0_485_10)">
<path fill-rule="evenodd" clip-rule="evenodd" d="M2.97647 0H22.0958C22.9766 0 23.6768 0.363251 24.2062 0.69826C24.7374 1.22947 25.0881 1.75977 25.0881 2.45893V37.315C25.0881 37.6784 24.9063 37.8463 24.9063 38.0132H26.1359C26.1359 38.0132 26.1359 38.0132 26.1359 37.8463V26.4422C26.1359 25.9391 26.3165 25.575 26.6671 25.24C27.0167 24.8767 27.5461 24.7087 28.0645 24.7087H36.4913C37.0225 24.7087 37.5391 24.8767 37.9025 25.24C38.2521 25.5748 38.4201 25.9391 38.4201 26.4422V37.8463C38.4201 38.0132 38.4201 38.0132 38.4201 38.0132H39.4679C39.8311 38.0132 40.0002 38.1812 40.0002 38.5444V39.4116C40.0002 39.6069 39.8311 39.7748 39.4679 39.7748H22.6272C22.4592 39.7748 22.2776 39.7748 22.096 39.7748H2.97647C2.11025 39.7748 1.41199 39.6069 0.880787 39.0756C0.34958 38.7124 0 38.0132 0 37.315V2.45893C0 1.75977 0.34958 1.22947 0.880787 0.69826C1.41199 0.363251 2.11025 0 2.97647 0ZM34.8984 27.8668H33.4999C33.333 27.8668 33.1651 27.8668 33.1651 28.0348L32.9698 28.2017V29.6002L33.1651 29.7956C33.1651 29.9634 33.333 29.9634 33.4999 29.9634H34.8984C35.0939 29.9634 35.0939 29.9634 35.2618 29.7956V29.6002V28.2017V28.0348C35.0939 27.8668 35.0939 27.8668 34.8984 27.8668ZM31.2374 34.3247H29.6437C29.4758 34.3247 29.4758 34.3247 29.3089 34.5201C29.3089 34.5201 29.3089 34.6879 29.3089 34.8823V36.0845C29.3089 36.2808 29.3089 36.2808 29.3089 36.4468C29.4758 36.4468 29.4758 36.4468 29.6437 36.4468H31.2374H31.4044C31.4044 36.2808 31.5713 36.2808 31.5713 36.0845V34.8823C31.5713 34.6879 31.4044 34.5201 31.4044 34.5201C31.4044 34.3247 31.2374 34.3247 31.2374 34.3247ZM34.8984 34.3247H33.4999C33.333 34.3247 33.1651 34.3247 33.1651 34.5201C33.1651 34.5201 32.9698 34.6879 32.9698 34.8823V36.0845C32.9698 36.2808 33.1651 36.2808 33.1651 36.4468C33.1651 36.4468 33.333 36.4468 33.4999 36.4468H34.8984C35.0939 36.4468 35.0939 36.4468 35.2618 36.4468C35.2618 36.2808 35.2618 36.2808 35.2618 36.0845V34.8823C35.2618 34.6879 35.2618 34.5201 35.2618 34.5201C35.0939 34.3247 35.0939 34.3247 34.8984 34.3247ZM31.2374 31.193H29.6437C29.4758 31.193 29.4758 31.193 29.3089 31.193C29.3089 31.3601 29.3089 31.3601 29.3089 31.5289V32.7586C29.3089 32.9255 29.3089 33.1218 29.3089 33.1218C29.4758 33.1218 29.4758 33.2887 29.6437 33.2887H31.2374L31.4044 33.1218C31.4044 33.1218 31.5713 32.9255 31.5713 32.7586V31.5289C31.5713 31.3601 31.4044 31.3601 31.4044 31.193H31.2374ZM34.8984 31.193H33.4999C33.333 31.193 33.1651 31.193 33.1651 31.193C33.1651 31.3601 32.9698 31.3601 32.9698 31.5289V32.7586C32.9698 32.9255 33.1651 33.1218 33.1651 33.1218C33.1651 33.1218 33.333 33.2887 33.4999 33.2887H34.8984C35.0939 33.2887 35.0939 33.1218 35.2618 33.1218C35.2618 33.1218 35.2618 32.9255 35.2618 32.7586V31.5289C35.2618 31.3601 35.2618 31.3601 35.2618 31.193C35.0939 31.193 35.0939 31.193 34.8984 31.193ZM31.2374 27.8668H29.6437C29.4758 27.8668 29.4758 27.8668 29.3089 28.0348V28.2017V29.6002V29.7956C29.4758 29.9634 29.4758 29.9634 29.6437 29.9634H31.2374C31.2374 29.9634 31.4044 29.9634 31.4044 29.7956L31.5713 29.6002V28.2017L31.4044 28.0348C31.4044 27.8668 31.2374 27.8668 31.2374 27.8668ZM9.82611 11.0409H6.13516C5.78663 11.0409 5.61958 11.0409 5.43705 11.2079C5.2691 11.4043 5.08747 11.7391 5.08747 11.9071V14.534C5.08747 14.8972 5.2691 15.0652 5.43705 15.2321C5.61958 15.4284 5.78663 15.4284 6.13516 15.4284H9.82611C9.99301 15.4284 10.3558 15.4284 10.5239 15.2321C10.7075 15.0652 10.8735 14.8972 10.8735 14.534V11.9071C10.8735 11.7391 10.7075 11.4041 10.5239 11.2079C10.3558 11.0409 9.99301 11.0409 9.82611 11.0409ZM9.82611 4.38771H6.13516C5.78663 4.38771 5.61958 4.38771 5.43705 4.55476C5.2691 4.72272 5.08747 5.08747 5.08747 5.25392V7.88231C5.08747 8.24556 5.2691 8.41247 5.43705 8.58042C5.61958 8.74838 5.78663 8.74838 6.13516 8.74838H9.82611C9.99301 8.74838 10.3558 8.74838 10.5239 8.58042C10.7075 8.41247 10.8735 8.24556 10.8735 7.88231V5.25392C10.8735 5.08747 10.7075 4.72272 10.5239 4.55476C10.3558 4.38771 9.99301 4.38771 9.82611 4.38771ZM18.9525 4.38771H15.2621C15.0952 4.38771 14.7318 4.38771 14.5639 4.55476C14.3822 4.72272 14.2143 5.08747 14.2143 5.25392V7.88231C14.2143 8.24556 14.3822 8.41247 14.5639 8.58042C14.7318 8.74838 15.0952 8.74838 15.2621 8.74838H18.9525C19.301 8.74838 19.4689 8.74838 19.6506 8.58042C19.8185 8.41247 20.0002 8.24556 20.0002 7.88231V5.25392C20.0002 5.08747 19.8185 4.72272 19.6506 4.55476C19.4689 4.38771 19.301 4.38771 18.9525 4.38771ZM9.82611 31.026H6.13516C5.78663 31.026 5.61958 31.1929 5.43705 31.3601C5.2691 31.5289 5.08747 31.7242 5.08747 31.8922V34.5201C5.08747 34.8823 5.2691 35.0513 5.43705 35.2173C5.61958 35.3863 5.78663 35.5543 6.13516 35.5543H9.82611C9.99301 35.5543 10.3558 35.3863 10.5239 35.2173C10.7075 35.0515 10.8735 34.8825 10.8735 34.5201V31.8922C10.8735 31.7242 10.7075 31.5289 10.5239 31.3601C10.3558 31.193 9.99301 31.026 9.82611 31.026ZM18.9525 31.026H15.2621C15.0952 31.026 14.7318 31.1929 14.5639 31.3601C14.3822 31.5289 14.2143 31.7242 14.2143 31.8922V34.5201C14.2143 34.8823 14.3822 35.0513 14.5639 35.2173C14.7318 35.3863 15.0952 35.5543 15.2621 35.5543H18.9525C19.301 35.5543 19.4689 35.3863 19.6506 35.2173C19.8185 35.0515 20.0002 34.8825 20.0002 34.5201V31.8922C20.0002 31.7242 19.8185 31.5289 19.6506 31.3601C19.4689 31.193 19.301 31.026 18.9525 31.026ZM9.82611 24.3455H6.13516C5.78663 24.3455 5.61958 24.5408 5.43705 24.7087C5.2691 24.7087 5.08747 25.072 5.08747 25.24V27.8668C5.08747 28.2017 5.2691 28.3698 5.43705 28.5649C5.61958 28.734 5.78663 28.734 6.13516 28.734H9.82611C9.99301 28.734 10.3558 28.734 10.5239 28.5649C10.7075 28.3696 10.8735 28.2017 10.8735 27.8668V25.24C10.8735 25.072 10.7075 24.7087 10.5239 24.7087C10.3558 24.5406 9.99301 24.3455 9.82611 24.3455ZM18.9525 24.3455H15.2621C15.0952 24.3455 14.7318 24.5408 14.5639 24.7087C14.3822 24.7087 14.2143 25.072 14.2143 25.24V27.8668C14.2143 28.2017 14.3822 28.3698 14.5639 28.5649C14.7318 28.734 15.0952 28.734 15.2621 28.734H18.9525C19.301 28.734 19.4689 28.734 19.6506 28.5649C19.8185 28.3696 20.0002 28.2017 20.0002 27.8668V25.24C20.0002 25.072 19.8185 24.7087 19.6506 24.7087C19.4689 24.5406 19.301 24.3455 18.9525 24.3455ZM9.82611 17.6922H6.13516C5.78663 17.6922 5.61958 17.8602 5.43705 17.8602C5.2691 18.0565 5.08747 18.3905 5.08747 18.5595V21.2156C5.08747 21.5496 5.2691 21.7186 5.43705 21.9129C5.61958 22.0819 5.78663 22.0819 6.13516 22.0819H9.82611C9.99301 22.0819 10.3558 22.0819 10.5239 21.9129C10.7075 21.7186 10.8735 21.5496 10.8735 21.2156V18.5595C10.8735 18.3905 10.7075 18.0565 10.5239 17.8602C10.3558 17.8602 9.99301 17.6922 9.82611 17.6922ZM18.9525 17.6922H15.2621C15.0952 17.6922 14.7318 17.8602 14.5639 17.8602C14.3822 18.0565 14.2143 18.3905 14.2143 18.5595V21.2156C14.2143 21.5496 14.3822 21.7186 14.5639 21.9129C14.7318 22.0819 15.0952 22.0819 15.2621 22.0819H18.9525C19.301 22.0819 19.4689 22.0819 19.6506 21.9129C19.8185 21.7186 20.0002 21.5496 20.0002 21.2156V18.5595C20.0002 18.3905 19.8185 18.0565 19.6506 17.8602C19.4689 17.8602 19.301 17.6922 18.9525 17.6922ZM18.9525 11.0409H15.2621C15.0952 11.0409 14.7318 11.0409 14.5639 11.2079C14.3822 11.4043 14.2143 11.7391 14.2143 11.9071V14.534C14.2143 14.8972 14.3822 15.0652 14.5639 15.2321C14.7318 15.4284 15.0952 15.4284 15.2621 15.4284H18.9525C19.301 15.4284 19.4689 15.4284 19.6506 15.2321C19.8185 15.0652 20.0002 14.8972 20.0002 14.534V11.9071C20.0002 11.7391 19.8185 11.4041 19.6506 11.2079C19.4689 11.0409 19.301 11.0409 18.9525 11.0409Z" fill="white"/>
</g>
<defs>
<clipPath id="clip0_485_10">
<rect width="40" height="39.775" fill="white"/>
</clipPath>
</defs>
</svg>
