<svg width="50" height="49" viewBox="0 0 50 49" fill="none" xmlns="http://www.w3.org/2000/svg">
<path d="M30.1358 18.0269C32.0691 11.4322 32.9283 5.87566 30.5951 5.2505C28.0367 4.56496 26.0469 9.10424 24.3372 16.2569L5.22601 21.5488L5.83359 23.7681L11.4113 23.8688C11.3538 24.3913 11.3318 24.945 11.3681 25.5235L12.1757 25.7399C12.1757 25.7399 12.7424 25.0687 13.1875 23.9006L18.4564 23.9971C18.3666 24.6101 18.3251 25.2716 18.3703 25.9683L19.1798 26.1852C19.1798 26.1852 19.8414 25.3895 20.2932 24.0299L22.732 24.0743C21.9624 28.3471 21.2382 33.0512 20.5273 37.8768L14.9483 41.1829L14.961 42.4724L20.1665 41.5043L21.1919 41.7791C21.1919 41.7791 21.2086 41.7453 21.2162 41.7244L25.3448 45.2544L26.0006 44.144L22.6961 38.2686C23.9882 35.1907 25.9128 30.4516 27.6796 25.5002L30.0191 26.7944C29.7743 28.1227 29.942 29.0684 29.942 29.0684L30.7515 29.2854C31.1059 28.7499 31.3854 28.206 31.6047 27.673L36.2541 30.2455C36.093 31.3893 36.2285 32.1844 36.2285 32.1844L37.038 32.4013C37.3288 31.9656 37.5706 31.5214 37.7703 31.0839L42.1137 33.4892L43.7495 31.8711L30.1358 18.0269Z" fill="white"/>
<path d="M11.728 28.0542L12.6179 28.2926L10.0345 37.934L9.14464 37.6955L11.728 28.0542Z" fill="white"/>
<path d="M16.17 27.4951L17.0598 27.7335L14.8739 35.8914L13.9841 35.653L16.17 27.4951Z" fill="white"/>
<path d="M33.9761 34.0156L34.8659 34.2541L32.2825 43.8954L31.3927 43.657L33.9761 34.0156Z" fill="white"/>
<path d="M30.4088 31.3105L31.2986 31.549L29.1127 39.7069L28.2229 39.4684L30.4088 31.3105Z" fill="white"/>
</svg>
