<svg width="40" height="40" viewBox="0 0 40 40" fill="none" xmlns="http://www.w3.org/2000/svg">
<path d="M3.59111 39.8998H14.4972C12.9675 38.8192 11.6212 37.5226 10.4737 36.0264H3.59102C2.52711 36.0264 1.66241 36.891 1.66241 37.955C1.66241 38.4704 1.86207 38.9692 2.22759 39.3184C2.59349 39.7006 3.07554 39.9003 3.59104 39.9003L3.59111 39.8998Z" fill="white"/>
<path d="M25.0374 39.9339C33.2836 39.9339 40 33.2175 40 24.9713C40 16.7252 33.2836 10.0088 25.0374 10.0088C16.7913 10.0088 10.0749 16.7085 10.0749 24.9713C10.0749 32.9017 16.2758 39.4181 24.0893 39.9007C24.4051 39.9174 24.7209 39.9341 25.0371 39.9341L25.0374 39.9339ZM23.3749 34.8298V33.2504C21.679 33.0842 20.0666 32.3194 18.8695 31.0892C18.2212 30.4409 18.2212 29.377 18.8862 28.745C19.5345 28.0967 20.5821 28.0967 21.2304 28.7617C21.9785 29.5098 23.0257 29.9588 24.0901 29.9588H26.7004C27.6148 29.9588 28.3629 29.2107 28.3629 28.2963C28.3629 27.3653 27.6148 26.6338 26.7004 26.6338H23.3754C20.6323 26.6338 18.3879 24.3894 18.3879 21.6463C18.3879 18.8865 20.6323 16.6588 23.3754 16.6588V15.0961C23.3754 14.1818 24.1235 13.4336 25.0379 13.4336C25.9523 13.4336 26.7004 14.1818 26.7004 15.0961V16.6922C28.3964 16.8418 29.959 17.5569 31.1892 18.7704C31.8542 19.402 31.8542 20.4663 31.2059 21.1146C30.5576 21.7796 29.5099 21.7796 28.8616 21.1313C28.0968 20.3832 27.0993 19.9843 26.0354 19.9843H23.3754C22.461 19.9843 21.7129 20.7157 21.7129 21.6468C21.7129 22.5611 22.461 23.3093 23.3754 23.3093H26.7004C29.4435 23.3093 31.6879 25.5369 31.6879 28.2968C31.6879 31.0399 29.4435 33.2843 26.7004 33.2843V34.8303C26.7004 35.7613 25.9523 36.4928 25.0379 36.4928C24.1235 36.4928 23.3754 35.7613 23.3754 34.8303L23.3749 34.8298Z" fill="white"/>
<path d="M1.66355 1.94532C1.66355 3.00923 2.5282 3.87392 3.59215 3.87392H29.7429C30.8235 3.87392 31.6882 3.00927 31.6882 1.94532C31.6882 0.864694 30.8236 0 29.7429 0H3.5912C2.52729 0 1.6626 0.864656 1.6626 1.94532H1.66355Z" fill="white"/>
<path d="M3.59114 28.8115C2.52723 28.8115 1.66254 29.6762 1.66254 30.7568C1.66254 31.2723 1.86219 31.7711 2.24441 32.1533C2.57692 32.5025 3.07567 32.7017 3.59114 32.7017H8.46209C7.89692 31.4716 7.44787 30.1745 7.14881 28.8116L3.59114 28.8115Z" fill="white"/>
<path d="M1.92862 25.4862H6.76661C6.74991 25.32 6.74991 25.137 6.74991 24.9708C6.74991 23.8237 6.84974 22.7097 7.06571 21.6123H1.92866C0.864754 21.6123 6.10352e-05 22.477 6.10352e-05 23.5576C6.10352e-05 24.0731 0.199714 24.5551 0.581938 24.9373C0.91444 25.2865 1.41319 25.4858 1.92866 25.4858L1.92862 25.4862Z" fill="white"/>
<path d="M5.25362 14.4141C4.18971 14.4141 3.32501 15.2787 3.32501 16.3427C3.32501 16.8581 3.52467 17.3569 3.89019 17.7061C4.25609 18.0883 4.73814 18.288 5.25363 18.288H8.01349C8.54564 16.9083 9.26037 15.6113 10.1083 14.4145H5.25363L5.25362 14.4141Z" fill="white"/>
<path d="M20.732 7.19873H1.9286C0.864694 7.19873 0 8.06338 0 9.14405C0 9.6595 0.199653 10.1583 0.581877 10.5405C0.914379 10.8897 1.41313 11.0889 1.9286 11.0889H13.1339C15.2952 9.22674 17.8888 7.88049 20.7317 7.19877L20.732 7.19873Z" fill="white"/>
</svg>
