<svg width="40" height="40" viewBox="0 0 40 40" fill="none" xmlns="http://www.w3.org/2000/svg">
<path d="M19.6892 30.1934L20.7914 31.9714L21.0072 31.3262C21.0792 31.9714 23.0216 33.1184 23.0216 33.1184L23.0936 32.6166C23.5252 33.1184 25.6116 34.0502 25.6116 34.0502C25.2519 32.975 22.8779 30.2508 22.8779 30.2508C24.4606 31.5411 27.1944 31.3979 27.1944 31.3979L26.8346 30.8244C28.4894 31.3979 29.9282 31.3979 29.9282 31.3979L29.5684 30.6809C32.5182 30.9676 34.3887 30.3941 34.3887 30.3941C33.2376 29.1755 29.7125 29.1755 29.7125 29.1755L30.288 28.817C29.2808 28.1719 25.9714 28.0286 25.9714 28.0286C30.3599 27.4551 32.2305 26.2364 32.2305 26.2364L31.7989 25.8064C34.0291 25.3763 36.5471 22.7239 36.5471 22.7239L35.7557 22.5806C36.619 22.2221 37.5543 20.2986 37.5543 20.2986C39.5686 19.1636 40.0003 17.706 40.0003 17.706C38.8492 17.921 38.1298 19.2114 36.5471 19.4263C34.9644 19.6414 33.022 20.8601 33.022 20.8601L32.8061 20.2986C32.0867 20.5255 28.1299 23.0107 28.1299 23.0107L28.2737 22.3655C26.9068 22.724 24.7486 24.5877 24.7486 24.5877C27.6262 22.0071 28.5615 19.7337 28.5615 19.7337L27.9141 19.3547C29.209 18.5661 31.1515 14.5517 31.1515 14.5517L30.4321 14.6235C31.5112 14.05 32.1587 11.0393 32.1587 11.0393L31.5831 10.9676C32.0868 10.4658 31.6551 9.03204 32.3027 8.10022C32.95 7.16828 33.4537 5.16115 33.4537 5.16115C33.4537 5.16115 33.4537 5.16115 33.166 5.30442C32.8782 5.4478 31.5113 7.52672 31.5113 7.52672C29.4249 9.10373 28.9212 10.2507 28.9212 10.2507L28.5615 9.74902C27.4825 10.3224 25.8278 13.405 25.8278 13.405V12.7598C24.3889 14.4802 24.1013 16.9892 24.1013 16.9892L23.7415 16.5591C22.9502 17.2043 21.6553 21.2903 21.6553 21.2903L22.3027 19.1397L21.799 19.068C22.7343 17.491 22.9566 13.3333 22.9566 13.3333L22.5186 13.405C23.7417 11.1111 22.015 6.88164 22.015 6.88164L21.5114 7.16839C21.799 5.59138 20.72 3.58404 20.72 3.58404L20.2943 3.94258C20.0839 1.79218 19.1367 0 19.1367 0C18.8489 1.50532 17.8417 5.66307 17.8417 5.66307L17.4819 5.59148C16.5467 7.59862 16.7625 12.4014 16.7625 12.4014L16.3308 12.3297C16.043 13.2617 17.0503 18.423 17.0503 18.423L16.5467 18.3514C16.2589 19.0682 17.338 23.656 17.338 23.656C16.8345 21.8639 15.4675 18.4947 15.4675 18.4947L15.1797 18.9964C14.8919 16.7742 12.5898 12.7599 12.5898 12.7599L12.2301 13.4051C11.0791 9.96418 9.38852 8.31549 9.38852 8.31549L8.92083 8.60223C8.92083 7.59872 7.84176 4.87461 7.84176 4.87461C7.55399 5.448 7.48204 8.45886 7.48204 8.45886C6.83454 11.9713 8.12954 14.9822 8.12954 14.9822H7.62593C7.4101 15.699 10.4317 19.7339 10.4317 19.7339H9.92806C9.71222 20.4714 14.8202 25.5404 14.8202 25.5404C14.3885 24.9159 9.38852 21.4337 9.38852 21.4337V22.0072C6.47481 19.7133 5.46769 19.7338 5.46769 19.7338V20.2986C3.95685 18.6618 2.94963 18.3511 2.94963 18.3511L2.87768 19.1397C2.87768 19.1397 0 16.2006 0 16.5591C0 16.9175 1.65462 20.8602 1.65462 20.8602C1.87046 21.6487 4.60425 23.7993 4.60425 23.7993L4.17258 24.3011C4.96398 25.1613 7.98555 25.7347 7.98555 25.7347L7.62582 26.2365C8.34527 26.7383 11.7266 27.6702 11.7266 27.6702C10.9352 27.2401 8.99277 27.1684 8.99277 27.1684L9.06472 27.8853C7.91371 27.3835 6.18704 27.5986 6.18704 27.5986L6.47481 28.1004C5.39575 28.0287 2.66185 29.4624 2.66185 29.4624C3.81296 28.889 6.11509 30.0359 6.11509 30.0359V30.681C6.90648 30.9677 10 30.8962 10 30.8962V31.3262C11.3669 31.2545 12.446 30.8244 12.446 30.8244C12.446 30.8244 12.0863 31.6846 12.446 31.3262C12.8057 30.9677 14.5323 30.8962 14.5323 30.8962C12.2302 33.4051 13.1654 34.5521 13.1654 34.5521C13.1654 34.0503 15.1798 32.6167 15.1798 32.6167H15.6834C16.4029 32.1865 17.2661 30.6453 17.2661 30.6453L17.5539 31.2546L18.9496 29.8638C18.9496 29.8638 19.7841 38.6381 18.9927 40H19.9999C19.9999 40 20.6734 34.2218 19.6892 30.1934Z" fill="white"/>
</svg>
