<svg width="40" height="38" viewBox="0 0 40 38" fill="none" xmlns="http://www.w3.org/2000/svg">
<path d="M38.3303 36.3533C38.6529 36.3533 38.9582 36.208 39.1614 35.9572C39.3646 35.7065 39.4438 35.3777 39.3772 35.0621L38.7033 31.8734C39.0871 31.5021 39.3283 30.9838 39.3283 30.4075C39.3283 29.8009 39.0581 29.2628 38.6387 28.8889V17.8155L35.9376 19.4871V28.8889C35.5182 29.2628 35.2479 29.8009 35.2479 30.4075C35.2479 30.9839 35.4892 31.5022 35.873 31.8734L35.1991 35.0621C35.1324 35.3778 35.2118 35.7066 35.4149 35.9572C35.6181 36.2079 35.9233 36.3533 36.246 36.3533H38.3303ZM39.2458 11.3538L21.6737 0.476133C21.159 0.159133 20.5789 0 19.9988 0C19.4186 0 18.8381 0.159 18.3266 0.476133L0.754199 11.3538C0.28498 11.6441 0 12.1569 0 12.7088C0 13.2608 0.28498 13.7738 0.754199 14.0646L18.3265 24.9424C18.838 25.2597 19.4185 25.4185 19.9987 25.4185C20.5788 25.4185 21.159 25.2595 21.6736 24.9424L39.2458 14.0646C39.715 13.7739 40 13.2608 40 12.7088C40 12.1569 39.715 11.644 39.2458 11.3538ZM19.9987 28.1194C18.9041 28.1194 17.8358 27.8154 16.9045 27.2391L6.65454 20.8935V31.82C6.65454 35.0539 12.6317 37.6717 19.9987 37.6717C27.3683 37.6717 33.345 35.0538 33.345 31.82V20.8935L23.0954 27.2391C22.1642 27.8154 21.0933 28.1194 19.9987 28.1194Z" fill="white"/>
</svg>
