<svg width="40" height="34" viewBox="0 0 40 34" fill="none" xmlns="http://www.w3.org/2000/svg">
<path d="M5.48981 20.5288V29.4999C5.48981 31.8797 7.4056 33.7958 9.7857 33.7958H17.8529V25.7517H22.1488V33.7958H30.216C32.5957 33.7958 34.5118 31.88 34.5118 29.4999V20.5288H5.48981Z" fill="white"/>
<path d="M5.87735 0.000976562L0 13.6707C0 15.0907 1.63107 16.2338 3.65797 16.2338H10.9154V0.00134527H5.87698L5.87735 0.000976562Z" fill="white"/>
<path d="M15.2114 0.000488281V16.233H24.7885V0.000488281H15.2114Z" fill="white"/>
<path d="M29.0847 0.000368007V16.2329H36.3421C38.369 16.2329 40 15.0898 40 13.6698L34.1227 0H29.0843L29.0847 0.000368007Z" fill="white"/>
</svg>
