<svg width="40" height="40" viewBox="0 0 40 40" fill="none" xmlns="http://www.w3.org/2000/svg">
<path d="M0 23.4001C0 25.2001 0.7 26.9001 1.9 28.2001L8.1 34.7001V35.7001H7.4C6.9 35.7001 6.4 36.1001 6.4 36.7001V39.0001C6.4 39.5001 6.8 40.0001 7.4 40.0001H17.3C17.8 40.0001 18.3 39.6001 18.3 39.0001V36.8001C18.3 36.3001 17.9 35.8001 17.3 35.8001H16.1V30.3001C16.1 28.9001 15.6 27.5001 14.8 26.4001L11.3 21.8001C10.7 21.0001 9.6 20.8001 8.7 21.3001C8 21.7001 7.6 22.6001 7.8 23.4001L8.6 27.3001L5.6 24.3001L4.3 20.0001C3.6 18.0001 3.3 15.8001 3.3 13.7001C3.3 12.8001 2.6 12.1001 1.7 12.1001C0.8 12.1001 0.1 12.8001 0.1 13.7001V23.4001H0Z" fill="white"/>
<path d="M38.4002 12.1001C37.5002 12.1001 36.8002 12.8001 36.8002 13.7001C36.8002 15.8001 36.5002 18.0001 35.8002 20.0001L34.4002 24.2001L31.4002 27.2001L32.2002 23.3001C32.4002 22.5001 32.0002 21.6001 31.3002 21.2001C30.4002 20.7001 29.3002 20.9001 28.7002 21.7001L25.2002 26.3001C24.3002 27.4001 23.9002 28.8001 23.9002 30.2001V35.7001H22.7002C22.2002 35.7001 21.7002 36.1001 21.7002 36.7001V39.0001C21.7002 39.5001 22.1002 40.0001 22.7002 40.0001H32.6002C33.1002 40.0001 33.6002 39.6001 33.6002 39.0001V36.8001C33.6002 36.3001 33.2002 35.8001 32.6002 35.8001H31.8002V34.8001L38.1002 28.3001C39.3002 27.0001 40.0002 25.3001 40.0002 23.5001V13.8001C40.0002 12.9001 39.3002 12.1001 38.4002 12.1001Z" fill="white"/>
<path d="M13.4002 1L11.7002 5H11.0002C10.8002 5 10.7002 5.1 10.6002 5.3L10.1002 6.6C10.0002 6.9 10.2002 7.2 10.5002 7.2H29.5002C29.8002 7.2 30.0002 6.9 29.9002 6.6L29.4002 5.3C29.3002 5.1 29.2002 5 29.0002 5H28.3002L26.6002 1C26.4002 0.4 25.8002 0 25.2002 0H14.8002C14.2002 0 13.6002 0.4 13.4002 1Z" fill="white"/>
<path d="M10 20H30C30.3 20 30.5 19.8 30.5 19.5V19.1C30.5 18.8 30.3 18.6 30 18.6H28.9V8.30005H11.4V18.6H10C9.7 18.6 9.5 18.8 9.5 19.1V19.5C9.5 19.8 9.7 20 10 20ZM22.8 11.6C22.8 10.9 23.3 10.4 24 10.4H25.3C26 10.4 26.5 10.9 26.5 11.6V16.7C26.5 17.4 26 17.9 25.3 17.9H24C23.3 17.9 22.8 17.4 22.8 16.7V11.6ZM13.9 11.9C13.9 11.1 14.6 10.4 15.4 10.4H18C18.8 10.4 19.5 11.1 19.5 11.9V13.9C19.5 14.7 18.8 15.4 18 15.4H15.3C14.5 15.4 13.8 14.7 13.8 13.9V11.9H13.9Z" fill="white"/>
<path d="M23.6004 15H23.8004C23.9004 15 24.0004 14.9 24.0004 14.8V14C24.0004 13.9 23.9004 13.8 23.8004 13.8H23.6004C23.5004 13.8 23.4004 13.9 23.4004 14V14.7C23.4004 14.9 23.5004 15 23.6004 15Z" fill="white"/>
</svg>
